<svg width="64" height="64" viewBox="0 0 64 64" fill="none" xmlns="http://www.w3.org/2000/svg">
  <defs>
    <!-- 强烈的渐变色以提高可见度 -->
    <linearGradient id="favGrad" x1="0%" y1="0%" x2="100%" y2="100%">
      <stop offset="0%" style="stop-color:#6366F1;stop-opacity:1" />
      <stop offset="50%" style="stop-color:#A855F7;stop-opacity:1" />
      <stop offset="100%" style="stop-color:#EC4899;stop-opacity:1" />
    </linearGradient>

    <!-- 发光效果 -->
    <filter id="favGlow">
      <feGaussianBlur stdDeviation="1" result="coloredBlur"/>
      <feMerge>
        <feMergeNode in="coloredBlur"/>
        <feMergeNode in="SourceGraphic"/>
      </feMerge>
    </filter>
  </defs>

  <!-- 白色背景 -->
  <rect width="64" height="64" fill="#FFFFFF" rx="8"/>

  <!-- 渐变背景圆 -->
  <circle cx="32" cy="32" r="28" fill="url(#favGrad)" opacity="0.08"/>

  <!-- 主要内容 -->
  <g transform="translate(32, 32)">

    <!-- 音频频谱条 -->
    <g>
      <!-- 左侧 -->
      <rect x="-24" y="-3" width="3.5" height="6" rx="1.75" fill="url(#favGrad)" opacity="0.6"/>
      <rect x="-19" y="-5" width="3.5" height="10" rx="1.75" fill="url(#favGrad)" opacity="0.7"/>
      <rect x="-14" y="-8" width="3.5" height="16" rx="1.75" fill="url(#favGrad)" opacity="0.85"/>
      <rect x="-9" y="-12" width="3.5" height="24" rx="1.75" fill="url(#favGrad)"/>

      <!-- 右侧 -->
      <rect x="5.5" y="-12" width="3.5" height="24" rx="1.75" fill="url(#favGrad)"/>
      <rect x="10.5" y="-8" width="3.5" height="16" rx="1.75" fill="url(#favGrad)" opacity="0.85"/>
      <rect x="15.5" y="-5" width="3.5" height="10" rx="1.75" fill="url(#favGrad)" opacity="0.7"/>
      <rect x="20.5" y="-3" width="3.5" height="6" rx="1.75" fill="url(#favGrad)" opacity="0.6"/>
    </g>

    <!-- 麦克风图标 - 带发光效果 -->
    <g filter="url(#favGlow)">
      <!-- 麦克风头部 -->
      <ellipse cx="0" cy="-7" rx="8" ry="9" fill="url(#favGrad)"/>
      <ellipse cx="0" cy="-7" rx="6.5" ry="7.5" fill="#1F2937"/>

      <!-- 网格线 -->
      <g stroke="url(#favGrad)" stroke-width="1.2" opacity="0.9">
        <line x1="-5" y1="-12" x2="5" y2="-12"/>
        <line x1="-6" y1="-8" x2="6" y2="-8"/>
        <line x1="-6" y1="-4" x2="6" y2="-4"/>
        <line x1="-5" y1="0" x2="5" y2="0"/>
      </g>

      <!-- 麦克风主体 -->
      <rect x="-6" y="2" width="12" height="13" rx="1.5" fill="#374151"/>
      <rect x="-5" y="3" width="10" height="11" rx="1.2" fill="#1F2937"/>

      <!-- 主体细节 -->
      <g stroke="url(#favGrad)" stroke-width="1" opacity="0.75">
        <line x1="-5" y1="6" x2="5" y2="6"/>
        <line x1="-5" y1="9" x2="5" y2="9"/>
        <line x1="-5" y1="12" x2="5" y2="12"/>
      </g>

      <!-- 连接器 -->
      <ellipse cx="0" cy="15" rx="6" ry="2" fill="#374151"/>

      <!-- 支架 -->
      <line x1="0" y1="15" x2="0" y2="20" stroke="#374151" stroke-width="3" stroke-linecap="round"/>
      <line x1="-7" y1="20" x2="7" y2="20" stroke="#374151" stroke-width="3" stroke-linecap="round"/>

      <!-- 支架装饰 -->
      <circle cx="-7" cy="20" r="1.8" fill="url(#favGrad)"/>
      <circle cx="7" cy="20" r="1.8" fill="url(#favGrad)"/>
    </g>

    <!-- 测量刻度 -->
    <g opacity="0.25">
      <path d="M -22 -22 A 31 31 0 0 1 -15 -25" stroke="url(#favGrad)" stroke-width="1.5" fill="none" stroke-linecap="round"/>
      <path d="M 15 -25 A 31 31 0 0 1 22 -22" stroke="url(#favGrad)" stroke-width="1.5" fill="none" stroke-linecap="round"/>
    </g>

  </g>
</svg>
